<svg xmlns="http://www.w3.org/2000/svg" width="50" height="50"><defs><style>.cls-1{fill:#fff}</style></defs><g id="Group_17783" data-name="Group 17783" transform="translate(-80 -205)"><path id="Shape" d="M30.445 0H7.59v30.833h30.858V7.978a7.978 7.978 0 00-8-7.978z" class="cls-1" transform="translate(91.452 205)"/><path id="Path_8749" d="M11.917 0H7.978A7.978 7.978 0 000 7.978v3.939h11.917z" class="cls-1" data-name="Path 8749" transform="translate(80 205)"/><path id="Rectangle-path" d="M0 7.59h11.917v11.917H0z" class="cls-1" transform="translate(80 216.452)"/><path id="Path_8750" d="M15.18 27h3.939a7.978 7.978 0 007.978-8v-3.82H15.18z" class="cls-1" data-name="Path 8750" transform="translate(102.903 227.903)"/><path id="Path_8751" d="M7.59 15.18h11.917V27.1H7.59z" class="cls-1" data-name="Path 8751" transform="translate(91.452 227.903)"/><path id="Path_8752" d="M0 15.18v3.939A7.978 7.978 0 007.978 27.1h3.939V15.18z" class="cls-1" data-name="Path 8752" transform="translate(80 227.903)"/></g></svg>
